<?xml version="1.0" encoding="UTF-8"?>
<svg version="1.1" xmlns="http://www.w3.org/2000/svg" width="64" height="64">
<path d="M0 0 C3.98089145 0.12063307 6.04870117 1.63893034 8.875 4.25 C11.93229984 7.54866562 11.93229984 7.54866562 12.375 10.5 C10.2906705 14.28969001 7.52166803 17.46994036 4 20 C2.68 20 1.36 20 0 20 C0.75 15.25 0.75 15.25 3 13 C-5.91 12.67 -14.82 12.34 -24 12 C-24 10.68 -24 9.36 -24 8 C-15.09 7.67 -6.18 7.34 3 7 C2.01 6.01 1.02 5.02 0 4 C0 2.68 0 1.36 0 0 Z " fill="#0B49DA" transform="translate(50,38)"/>
<path d="M0 0 C-0.75 4.75 -0.75 4.75 -3 7 C10.365 7.495 10.365 7.495 24 8 C24 9.32 24 10.64 24 12 C10.635 12.495 10.635 12.495 -3 13 C-2.01 13.99 -1.02 14.98 0 16 C0 17.32 0 18.64 0 20 C-3.98089145 19.87936693 -6.04870117 18.36106966 -8.875 15.75 C-11.93229984 12.45133438 -11.93229984 12.45133438 -12.375 9.5 C-9.48260755 4.24110463 -6.19129786 0 0 0 Z " fill="#0C49DA" transform="translate(14,8)"/>
<path d="M0 0 C2.35546875 0.17578125 2.35546875 0.17578125 5 1 C7.99566834 6.03855965 9.63273668 12.14718567 9 18 C7.35 17.67 5.7 17.34 4 17 C4 16.01 4 15.02 4 14 C2.68 14 1.36 14 0 14 C-0.33 15.32 -0.66 16.64 -1 18 C-2.32 18 -3.64 18 -5 18 C-5.28773432 13.20922365 -4.44169975 9.99382444 -2.5 5.625 C-2.0359375 4.56539062 -1.571875 3.50578125 -1.09375 2.4140625 C-0.55234375 1.21910156 -0.55234375 1.21910156 0 0 Z " fill="#20C0FC" transform="translate(19,24)"/>
<path d="M0 0 C1.60875 -0.04125 3.2175 -0.0825 4.875 -0.125 C5.77992187 -0.14820312 6.68484375 -0.17140625 7.6171875 -0.1953125 C10 0 10 0 12 2 C12.265625 3.875 12.265625 3.875 12.25 6 C12.25515625 6.70125 12.2603125 7.4025 12.265625 8.125 C12 10 12 10 10 12 C6.875 12.125 6.875 12.125 4 12 C4 13.98 4 15.96 4 18 C2.68 18 1.36 18 0 18 C0 12.06 0 6.12 0 0 Z M4 4 C4 5.32 4 6.64 4 8 C4.99 7.67 5.98 7.34 7 7 C6.67 6.01 6.34 5.02 6 4 C5.34 4 4.68 4 4 4 Z " fill="#20BFFC" transform="translate(30,24)"/>
<path d="M0 0 C1.32 0 2.64 0 4 0 C4 5.94 4 11.88 4 18 C2.68 18 1.36 18 0 18 C0 12.06 0 6.12 0 0 Z " fill="#20BFFC" transform="translate(44,24)"/>
<path d="M0 0 C2.64 0 5.28 0 8 0 C8 1.32 8 2.64 8 4 C5.36 4 2.72 4 0 4 C0 2.68 0 1.36 0 0 Z " fill="#0C49DA" transform="translate(14,46)"/>
<path d="M0 0 C2.64 0 5.28 0 8 0 C8 1.32 8 2.64 8 4 C5.36 4 2.72 4 0 4 C0 2.68 0 1.36 0 0 Z " fill="#0C49DA" transform="translate(42,16)"/>
</svg>
